<svg xmlns="http://www.w3.org/2000/svg" viewBox="0 0 55.94 55.94"><defs><style>.cls-1{fill:#fff;}</style></defs><title>2019SummerTeam</title><g id="Layer_2" data-name="Layer 2"><g id="Layer_4" data-name="Layer 4"><path class="cls-1" d="M28,0a28,28,0,1,0,28,28A28,28,0,0,0,28,0Zm-8,26.19a.3.3,0,1,0-.42.42l.17.17a2.46,2.46,0,0,0-.25.78l0,.06v2.5l-3.2-3.19a.15.15,0,0,0-.23,0,.13.13,0,0,0,0,.18,11.14,11.14,0,0,1,2.34,4.25,5.12,5.12,0,0,1,0,1.57,1,1,0,0,1-.89.94,1.53,1.53,0,0,1-1.26-.64,10.17,10.17,0,0,1-.7-1.37,7.12,7.12,0,0,0-1-1.87c-.67-1-2-3.12-2.19-3.57a8.83,8.83,0,0,0-.53-1.12,10.21,10.21,0,0,1-1.11-2.64c0-.09,0-.18,0-.27a7,7,0,0,1,0-2.24c.52-3,2.72-5.56,5.85-5.73a9.44,9.44,0,0,1,5,1.11A11.81,11.81,0,0,1,24,17.72l3,3a2.29,2.29,0,0,0-1.22,1.74l0,.06v.58l-1.33-1.32a.29.29,0,0,0-.43,0,.3.3,0,0,0,0,.43l1,1h-.16a2.24,2.24,0,0,0-2.08,1.38l-.3-.29a.29.29,0,1,0-.41.42l.52.52h0v.53a2.32,2.32,0,0,0-.87-.17A2.28,2.28,0,0,0,20,26.3Zm16.94,6.23v0a10.42,10.42,0,0,1-.41,1.33,1.17,1.17,0,0,1-.05.11,7.31,7.31,0,0,0-.64,2c-.23,1.19-.78,3.63-1,4.08a11.66,11.66,0,0,0-.43,1.17,9.83,9.83,0,0,1-1.07,2.65l-.16.22a6.77,6.77,0,0,1-1.6,1.56c-2.47,1.74-5.86,2-8.19-.08a9.39,9.39,0,0,1-2.75-4.32,11.62,11.62,0,0,1-.18-3.28V27.75h0c0-.07,0-.12.05-.18h0a1.39,1.39,0,0,1,.29-.55h0a1.29,1.29,0,0,1,.17-.16l.25-.16.12,0a1.24,1.24,0,0,1,.4-.07,1.28,1.28,0,0,1,1.14.7,1.36,1.36,0,0,1,.13.46v7a.32.32,0,0,0,.3.32.31.31,0,0,0,.29-.32V25.37h0a.06.06,0,0,0,0,0,1.22,1.22,0,0,1,.13-.46,1.3,1.3,0,0,1,.52-.52,1.32,1.32,0,0,1,.62-.18,1.27,1.27,0,0,1,1.27,1.16v0h0v9a.29.29,0,0,0,.07.19.3.3,0,0,0,.17.1s0,0,0,0a.31.31,0,0,0,.3-.32V22.59h0a1.45,1.45,0,0,1,.12-.42A1.53,1.53,0,0,1,27,22l.09-.11a1.18,1.18,0,0,1,.28-.22h0a1.28,1.28,0,0,1,.37-.14h0a1.19,1.19,0,0,1,.26-.05,1.27,1.27,0,0,1,1.27,1.16V23h0V34.76h0a.33.33,0,0,0,.08.2.27.27,0,0,0,.18.1l0,0a.19.19,0,0,0,.1,0,.29.29,0,0,0,.12-.1.26.26,0,0,0,.07-.17v-9.4s0,0,0,0a1,1,0,0,1,.11-.39c0-.05.05-.1.07-.14l.13-.17a1.11,1.11,0,0,1,.4-.31h0a1.2,1.2,0,0,1,.56-.15,1.42,1.42,0,0,1,.42.08l.12.06a1.38,1.38,0,0,1,.24.14,1.09,1.09,0,0,1,.11.1,1.38,1.38,0,0,1,.24.3,1.33,1.33,0,0,1,.14.48s0,0,0,0V36.86c0,.09.07.19.16.17a.13.13,0,0,0,.12-.14A11.12,11.12,0,0,1,34,32.22a5.27,5.27,0,0,1,1.11-1.11,1,1,0,0,1,1.29,0h0a1.09,1.09,0,0,1,.23.29,1.33,1.33,0,0,1,.16.34,1.53,1.53,0,0,1,.07.36A1.32,1.32,0,0,1,36.87,32.42Zm9.38-8.49a11.49,11.49,0,0,1-2.18,2.44l-4.22,4.22-2,2a2.48,2.48,0,0,0-.73-2.25,1.78,1.78,0,0,0-.37-.26L40,26.78a.29.29,0,1,0-.41-.41l-3.51,3.51a1.15,1.15,0,0,0-.26,0,2.28,2.28,0,0,0-1.29.44,6.16,6.16,0,0,0-1.18,1.13V29l4.13-4.12a.3.3,0,0,0,0-.43.29.29,0,0,0-.43,0l-3.71,3.7V25.21l0-.06a2.57,2.57,0,0,0-.11-.48l2.33-2.33a.31.31,0,0,0,0-.44.31.31,0,0,0-.43,0L33,24.13a2.25,2.25,0,0,0-1.85-.95,2.29,2.29,0,0,0-.87.17v-.12l4.61-4.61a.16.16,0,0,0,0-.23.14.14,0,0,0-.19,0,11,11,0,0,1-4.24,2.35,6,6,0,0,1-1.25,0,2.19,2.19,0,0,0-1-.32.83.83,0,0,1-.28-.6,1.53,1.53,0,0,1,.64-1.26,9.82,9.82,0,0,1,1.36-.7,7.45,7.45,0,0,0,1.87-1c1-.67,3.12-2,3.57-2.19a11.62,11.62,0,0,0,1.13-.53,10.06,10.06,0,0,1,2.64-1.11l.27,0a7,7,0,0,1,2.23,0c3,.52,5.57,2.71,5.74,5.85A9.36,9.36,0,0,1,46.25,23.93Z"/></g></g></svg>