<svg xmlns="http://www.w3.org/2000/svg" viewBox="0 0 55.94 55.94"><defs><style>.cls-1{fill:#fff;}</style></defs><title>AnimalInternship</title><g id="Layer_2" data-name="Layer 2"><g id="Layer_4" data-name="Layer 4"><path class="cls-1" d="M28,0a28,28,0,1,0,28,28A28,28,0,0,0,28,0ZM39.45,30.33a7,7,0,0,1,.24-.69h0c.52-1.21,1.43-2,2.22-1.76s1.35,1.76.92,3.36-1.54,2.71-2.48,2.46S39,31.93,39.45,30.33Zm-2.61-2a3.11,3.11,0,0,1,.46.54v0a4.13,4.13,0,0,1,.39.72h0a7,7,0,0,1,.24.69c.43,1.6,0,3.11-.92,3.36s-2-.85-2.47-2.46a4.24,4.24,0,0,1-.05-2.2h0a1.72,1.72,0,0,1,.07-.21v0l.07-.18s0,0,0,0a1.09,1.09,0,0,0,.08-.15l0,0,.08-.12s0,0,0-.05l.08-.09.07-.05.07-.06.1-.06,0,0,.17-.06h0a1,1,0,0,1,.25,0h.05a1.07,1.07,0,0,1,.25,0h0l.23.08.06,0,.24.14h0a2.12,2.12,0,0,1,.24.2ZM27.68,8.18a6.58,6.58,0,1,1-6.59,6.58A6.58,6.58,0,0,1,27.68,8.18Zm4,32H12.27c0-9.58,6.9-17.35,15.41-17.35a14.27,14.27,0,0,1,8.94,3.22,3.26,3.26,0,0,0-.87-.12h0a3.22,3.22,0,0,0-.76.09c-1.54.42-2.46,2-2.47,3.87a2.86,2.86,0,0,0-.77-.1h0a2.72,2.72,0,0,0-1.37.36c-1.61.93-1.9,3.25-.67,5.38a5.07,5.07,0,0,0,2.54,2.28A11.27,11.27,0,0,0,31.72,40.22Zm0-5,0,0a1.27,1.27,0,0,1-.13-.19l-.05-.06c0-.08-.11-.16-.16-.25a5.16,5.16,0,0,1-.36-.81,3.29,3.29,0,0,1-.14-.71c0-.13,0-.26,0-.38l0-.17a1.5,1.5,0,0,1,.09-.32,1,1,0,0,1,.37-.44h0a.73.73,0,0,1,.19-.07l0,0,.2,0h0a2.76,2.76,0,0,1,2,1.54c.68,1.18.69,2.44,0,2.83S32.37,36,31.71,35.19ZM43.8,41.47a2.77,2.77,0,0,1-2.75,2.19,3.27,3.27,0,0,1-1.66-.85,1.2,1.2,0,0,0-1.4,0,3.27,3.27,0,0,1-1.66.85,2.75,2.75,0,0,1-2.78-2.86,3.9,3.9,0,0,1,.05-.58h0l.09-.55,0-.07c0-.16.07-.33.12-.49l0-.1.15-.48,0-.08a12.5,12.5,0,0,1,.61-1.53c0-.06.74-1.27.77-1.24a4.34,4.34,0,0,1,6.55,0s1.18,1.2,1.8,4.62a2.61,2.61,0,0,1,.08.56A1.7,1.7,0,0,1,43.8,41.47Zm2.27-6.83c-.68,1.17-1.77,1.81-2.44,1.43s-.66-1.65,0-2.83,1.77-1.81,2.43-1.43S46.74,33.46,46.07,34.64Z"/></g></g></svg>