<svg xmlns="http://www.w3.org/2000/svg" viewBox="0 0 55.94 55.94"><defs><style>.cls-1{fill:#fff;}</style></defs><title>Asset 329</title><g id="Layer_2" data-name="Layer 2"><g id="Layer_1-2" data-name="Layer 1"><path class="cls-1" d="M28,0a28,28,0,1,0,28,28A28,28,0,0,0,28,0ZM19.32,22.88,19.44,24c.08.65.15,1.29.22,1.93l.27,2.51c.11,1,.21,1.93.31,2.9s.21,2,.31,3.06.19,2,.28,3,.17,1.83.24,2.75c.06.76.11,1.51.15,2.27.06,1.27.27,2.86-.72,3.85a2.43,2.43,0,0,1-1.73.72l-.26,0a2.45,2.45,0,0,1-1.63-.87,3,3,0,0,1-.59-2c0-.46,0-.93,0-1.4,0-.69.08-1.39.13-2.09.06-.86.13-1.72.19-2.58l.24-2.88c.08-1,.17-2,.25-3s.17-1.92.26-2.88l.24-2.59c.06-.69.12-1.39.19-2.09,0-.46.09-.93.13-1.39,0-.15,0-.49.05-.68-1.88-.57-3.31-3.17-3.31-6.31,0-3.55,1.82-6.43,4.07-6.43s4.07,2.88,4.07,6.43c0,3.27-1.55,6-3.55,6.37C19.3,22.69,19.31,22.84,19.32,22.88Zm10.36-1.2c.05.39.09.78.14,1.17.07.67.15,1.34.22,2,.1.88.19,1.76.29,2.64s.21,2,.32,3L31,33.76c.1,1.06.2,2.11.29,3.16s.17,1.93.25,2.89c.06.79.12,1.59.16,2.38.07,1.33.29,3-.75,4a2.59,2.59,0,0,1-1.82.76l-.27,0a2.57,2.57,0,0,1-1.71-.91,3.23,3.23,0,0,1-.63-2.13c0-.49,0-1,.05-1.47,0-.73.08-1.46.13-2.19.07-.91.13-1.81.21-2.72s.16-2,.24-3l.27-3.12.27-3c.08-.9.16-1.8.25-2.71.06-.73.13-1.46.2-2.19.05-.49.09-1,.14-1.47,0-.17,0-.56,0-.75-1.2-.65-2.08-2.7-2.08-5.13,0-.14,0-.27,0-.39s.56-7.87.56-7.87l.53,7.3c0,.18.11.33.24.33a.24.24,0,0,0,.21-.21c0-.28.56-7.42.56-7.42l.54,7.74h0v0c0,.18.1.33.23.33s.24-.15.24-.33v0h0l.54-7.74.55,7.43c0,.16.11.28.23.28s.21-.15.23-.33.53-7.38.53-7.38.56,7.85.56,7.87,0,.25,0,.39c0,2.62-1,4.79-2.36,5.25A2.44,2.44,0,0,1,29.68,21.68ZM39,45.47c-.44,1.32-2.57,2.17-3.53.88a2.71,2.71,0,0,1-.32-1.7c0-.68,0-1.36.08-2s.08-1.41.13-2.12c.06-.87.13-1.74.2-2.62s.15-1.94.24-2.92.17-2,.26-3,.17-1.94.25-2.92.09-.87.17-1.75a1.26,1.26,0,0,0,0-.27l-.72-.54,0-2.17C35.76,6.78,38.5,10,38.5,10s.66,31.57.7,32.34c0,.12,0,.25,0,.38A8.37,8.37,0,0,1,39,45.47Z"/></g></g></svg>