<svg xmlns="http://www.w3.org/2000/svg" viewBox="0 0 55.94 55.94"><defs><style>.cls-1{fill:#fff;}</style></defs><title>Asset 325</title><g id="Layer_2" data-name="Layer 2"><g id="Layer_1-2" data-name="Layer 1"><path class="cls-1" d="M32.25,24.74a4.31,4.31,0,0,1-2.06-.55l-.38,1.46a5.13,5.13,0,0,0,2.12.53v1.18h1.21V26.09a2.38,2.38,0,0,0,2.21-2.29c0-1.12-.59-1.81-2.07-2.33-1.06-.39-1.49-.65-1.49-1.06s.26-.7,1.07-.7a4.18,4.18,0,0,1,1.78.42l.36-1.4a4.46,4.46,0,0,0-1.8-.41V17.23H32v1.18a2.29,2.29,0,0,0-2.1,2.21c0,1.2.91,1.82,2.23,2.27.92.31,1.32.61,1.32,1.08S33,24.74,32.25,24.74Z"/><path class="cls-1" d="M28,0a28,28,0,1,0,28,28A28,28,0,0,0,28,0Zm4.61,14.8a7.49,7.49,0,1,1-7.49,7.49A7.5,7.5,0,0,1,32.58,14.8ZM48.29,34.13l-13,5.58a9.35,9.35,0,0,1-4.88,1l-12.16-4L15,35.61s-1.15-.71-3.37.33c0,0-4.69-11-4.69-11.09s7.43-5,7.43-5,3.47-2.29,8.35,0l.89.34a9.63,9.63,0,0,0-.24,2.09,9.14,9.14,0,0,0,.65,3.4,2,2,0,0,0-2.19,1.49c-.73,2.36,2.74,3,3.44,3.21s7.21,2.7,7.21,2.7,1.11.71,3.81-.29c.77-.29,1.93-.7,3.2-1.14l2.2-4.7A2.4,2.4,0,0,1,45,26a2,2,0,0,1,.74,1.88c-.12.42-.37,1.15-.64,1.88l1.38-.47A2.54,2.54,0,0,1,49.62,31,2.43,2.43,0,0,1,48.29,34.13Z"/></g></g></svg>