<svg xmlns="http://www.w3.org/2000/svg" viewBox="0 0 55.94 55.94"><defs><style>.cls-1{fill:#fff;}</style></defs><title>Asset 340</title><g id="Layer_2" data-name="Layer 2"><g id="Layer_1-2" data-name="Layer 1"><path class="cls-1" d="M28,0a28,28,0,1,0,28,28A28,28,0,0,0,28,0ZM44,16.83,42.47,41h0L40,40.83v1.71H11.64V14.14h4.11L16,10.82,44.3,12.65Z"/><polygon class="cls-1" points="42.2 14.5 40.03 14.36 40.03 18.32 40.03 21 41.91 19.05 42.2 14.5"/><polygon class="cls-1" points="17.82 12.93 17.74 14.14 36.66 14.14 17.82 12.93"/><path class="cls-1" d="M13.62,16.12V33l1-.92,4.8-4.52,3.68-3,3.44-2.84L32,27.88l6.06-7.2V16.12H13.62Zm13.91,1.67a1.69,1.69,0,1,1-1.69,1.69A1.69,1.69,0,0,1,27.53,17.79Z"/></g></g></svg>