<svg xmlns="http://www.w3.org/2000/svg" viewBox="0 0 55.94 55.94"><defs><style>.cls-1{fill:#fff;}</style></defs><title>Asset 312</title><g id="Layer_2" data-name="Layer 2"><g id="Layer_1-2" data-name="Layer 1"><path class="cls-1" d="M30.77,15.07a2.32,2.32,0,1,0-2.32-2.31A2.3,2.3,0,0,0,30.77,15.07Z"/><path class="cls-1" d="M28,0a28,28,0,1,0,28,28A28,28,0,0,0,28,0ZM47.15,38.16,27.43,27.79l2.05-1.46,0,.08,1.25,2.06L32,26.41l2-3.32,2.37-1.7h7.29ZM30.77,6.52a6.53,6.53,0,0,1,5.51,10h0l-5.51,9.11h0l-.11-.16h0l-1-1.59h0l-1.51-2.51h0l-2.94-4.85h0a6.53,6.53,0,0,1,5.52-10ZM26.49,21.39l2,3.36L25.6,26.83,15.27,21.39Zm-13.82.73L23.91,28,9.29,38.48ZM9.16,40.85,25.75,29,47.64,40.51l.07.34Z"/></g></g></svg>