<svg xmlns="http://www.w3.org/2000/svg" viewBox="0 0 55.94 55.94"><defs><style>.cls-1{fill:#fff;}</style></defs><title>Asset 320</title><g id="Layer_2" data-name="Layer 2"><g id="Layer_1-2" data-name="Layer 1"><path class="cls-1" d="M23.61,15.44l-.33-.17-.18.33-1.83,3.47-.57-1-.19-.32-.33.18-.62.36-.33.18.19.33L20.65,21a.74.74,0,0,0,.64.37.73.73,0,0,0,.65-.39l2.46-4.65.18-.33-.34-.18Z"/><rect class="cls-1" x="26.78" y="32.92" width="11.29" height="1.51"/><rect class="cls-1" x="26.78" y="38.83" width="11.29" height="1.51"/><path class="cls-1" d="M23.61,34.35l-.33-.18-.18.34L21.27,38l-.57-1-.19-.33-.33.19-.62.35-.33.19.19.33,1.23,2.17a.74.74,0,0,0,.64.37.77.77,0,0,0,.65-.39L24.4,35.2l.18-.34-.34-.17Z"/><path class="cls-1" d="M23.61,24.9l-.33-.18-.18.34-1.83,3.46-.57-1-.19-.33-.33.19-.62.35-.33.19.19.32,1.23,2.17a.75.75,0,0,0,.64.38.76.76,0,0,0,.65-.4l2.46-4.65.18-.33-.34-.18Z"/><rect class="cls-1" x="26.78" y="21.08" width="11.29" height="1.51"/><path class="cls-1" d="M28,0a28,28,0,1,0,28,28A28,28,0,0,0,28,0ZM41.38,43.52H17.21V10.78H34.5v4.38H26.78v1.51H34.5v1h6.88ZM35.5,16.66V10.78l5.88,5.88Z"/><rect class="cls-1" x="26.78" y="27" width="11.29" height="1.51"/></g></g></svg>