<svg xmlns="http://www.w3.org/2000/svg" viewBox="0 0 55.94 55.94"><defs><style>.cls-1{fill:#fff;}</style></defs><title>Asset 333</title><g id="Layer_2" data-name="Layer 2"><g id="Layer_1-2" data-name="Layer 1"><path class="cls-1" d="M28,0a28,28,0,1,0,28,28A28,28,0,0,0,28,0ZM42.38,20.43l.34,3.17c-.69.07-1.41.11-2.14.12l0-3.18A17.85,17.85,0,0,0,42.38,20.43Zm-6.68-.34c.62.12,1.25.21,1.86.28l-.37,3.16c-.68-.08-1.38-.18-2.08-.32Zm-4.44-1.46a12.57,12.57,0,0,0,1.61.74l-1.1,3a16.07,16.07,0,0,1-2-.91ZM27.2,15.87c.58.46,1.08.83,1.54,1.16l-1.85,2.59c-.5-.36-1-.75-1.65-1.24ZM23,12.66c.49.35,1,.74,1.66,1.24l-1.94,2.51c-.61-.46-1.1-.83-1.54-1.14Zm-5.5-2.34a8.06,8.06,0,0,1,2.42.59l-1.2,2.95a4.7,4.7,0,0,0-1.42-.36Zm-4,1.2,1.84,2.59a8.71,8.71,0,0,0-1.3,1.1L11.77,13A11.8,11.8,0,0,1,13.51,11.52Zm-3.79,6a6,6,0,0,1,.08-.94l3.14.55a1.72,1.72,0,0,0,0,.39,2.6,2.6,0,0,0,.14.81l-3,1A5.88,5.88,0,0,1,9.72,17.5Zm2.34,5.06,2.32-2.18a11.91,11.91,0,0,0,1.31,1.18l-2.13,2.36A12.56,12.56,0,0,1,12.06,22.56ZM25.4,39h0c0,.45-2.53,1.64-3.48,2.41a1.2,1.2,0,0,0-.28,1.67c2.51.64,2,1.59,2,1.59-2.53.35-3.83,0-3.68-1.14a4.59,4.59,0,0,0-.25-2.12c0-.73.62-.82.95-1.31a6.53,6.53,0,0,1,1.56-2c.92-.74,1.66-3.7,1.39-5.86a7.5,7.5,0,0,0,4.61,2.4A5.8,5.8,0,0,1,25.4,39Zm19.32-6.76c-.56-.09-1.5-1.27-2-.87a8.45,8.45,0,0,1-2.58,1.47l-2.72,5.53.43,3.53c.63-.26.33-.15.68-.28a.73.73,0,0,1,.78.08c.33.17.88.26,1,.54s0,.24,0,.4c0,.74-.53.52-.53.52a.48.48,0,0,0-.74,0,1.88,1.88,0,0,1-1.72.28L35.4,38.17l.44-3.91-2.06,4.39L32.34,42c.66-.15.35-.1.72-.17a.78.78,0,0,1,.76.19c.29.22.82.39.91.69s0,.23-.07.39c-.14.73-.59.44-.59.44a.49.49,0,0,0-.73-.16,2.19,2.19,0,0,1-1.36.21c-.33,0-1.06.06-1.31-.2s0-.77,0-1.06l1.21-4.53V34.55a29.08,29.08,0,0,0,4-1.12l0-.38-.54,0-1,.33-.53.15-.38.11-.66.16-.2,0-.67.13-.1,0h0a11.74,11.74,0,0,1-3.66.09H28.2L27.84,34l-.14,0a7.91,7.91,0,0,1-1.07-.31l-.11,0-.29-.13-.11-.05a6.76,6.76,0,0,1-.84-.47l-.09-.06L25,32.73l-.11-.09-.19-.15-.07-.06a3.26,3.26,0,0,1-.33-.31,1.14,1.14,0,0,1-.11-.11L24,31.87l-.11-.12-.12-.15-.1-.14a2,2,0,0,1-.17-.23.36.36,0,0,1-.07-.1h0a6.42,6.42,0,0,1-.47-.81h0c1.31,7.5-4,8.89-5.65,9.34s-1,1.74-1,1.74c.79,2.56-.41,3.28-.41,3.28a6.73,6.73,0,0,1-1.4-3.28c0-.8.3-1,.4-1.64s1.1-1.29,2-2.19,1.49-4.23,1-6.56a9.1,9.1,0,0,1-.34-3,7,7,0,0,1,.14-1.4l-2.27-1.31,2.13-2.45,1.57.92a7.43,7.43,0,0,1,5.59-2.31A7.88,7.88,0,0,1,29,22.62h0v0a6.43,6.43,0,0,1,1.11.9c.86.6,1.91,1.3,2.08,1.41A16.82,16.82,0,0,0,35,26.46a15,15,0,0,0,2.07.75c1.14.34,2.05-.12,3.18-.29a11.57,11.57,0,0,1,1.58-.17,2.27,2.27,0,0,1,1.11-1.88,5.68,5.68,0,0,1,.09.94,1.74,1.74,0,0,1,.54-.33,2,2,0,0,1,.08,1.42c1.94.54,1.49,2.87,1.49,2.87l1,1.6C45.61,31.79,45.39,32.34,44.72,32.24Zm.78-9.12-.41-3.27.26-.11a1.59,1.59,0,0,1,2.49,2A4.94,4.94,0,0,1,45.5,23.12Z"/></g></g></svg>