<svg xmlns="http://www.w3.org/2000/svg" viewBox="0 0 55.94 55.94"><title>Asset 282</title><g id="Layer_2" data-name="Layer 2"><g id="Layer_1-2" data-name="Layer 1"><path d="M28,11.86A12.78,12.78,0,1,0,40.76,24.64,12.78,12.78,0,0,0,28,11.86Zm0,2.61a5,5,0,1,1-5,5A5,5,0,0,1,28,14.47ZM28,36a11.34,11.34,0,0,1-9.39-5A11.36,11.36,0,0,1,28,25.71,11.36,11.36,0,0,1,37.36,31,11.34,11.34,0,0,1,28,36Z"/><path d="M28,0a28,28,0,1,0,28,28A28,28,0,0,0,28,0ZM45.1,24l-.85,1.17a1.94,1.94,0,0,0-.21,2l.59,1.32A2,2,0,0,1,43.81,31l-1.26.72a2,2,0,0,0-1,1.73v1.45a2,2,0,0,1-1.78,2L38.34,37a1.85,1.85,0,0,0-.69.21l5.41,7.93-5.35-2.72.58,6L32.75,40.3l-.42-.14a2,2,0,0,0-1.95.42l-1.08,1a2,2,0,0,1-2.66,0l-1.07-1a2,2,0,0,0-1.95-.42l-1.38.46a1.8,1.8,0,0,1-.39.08l-5.13,7.52.58-6L12,45l5.43-8-1.21-.12a2,2,0,0,1-1.78-2V33.46a2,2,0,0,0-1-1.73L12.14,31a2,2,0,0,1-.83-2.53l.6-1.32a2,2,0,0,0-.21-2L10.84,24a2,2,0,0,1,.28-2.65l1.08-1a2,2,0,0,0,.62-1.89l-.31-1.42a2,2,0,0,1,1.33-2.31l1.38-.44a2,2,0,0,0,1.34-1.48l.29-1.42A2,2,0,0,1,19,9.86l1.44.16a2,2,0,0,0,1.82-.81L23.12,8a2,2,0,0,1,2.6-.55L27,8.21a2,2,0,0,0,2,0l1.25-.73A2,2,0,0,1,32.83,8l.84,1.18A2,2,0,0,0,35.5,10l1.44-.16a2,2,0,0,1,2.15,1.57l.3,1.42a2,2,0,0,0,1.33,1.48l1.38.44a2,2,0,0,1,1.33,2.31l-.3,1.42a2,2,0,0,0,.61,1.89l1.08,1A2,2,0,0,1,45.1,24Z"/></g></g></svg>