<svg xmlns="http://www.w3.org/2000/svg" viewBox="0 0 55.94 55.94"><title>Asset 283</title><g id="Layer_2" data-name="Layer 2"><g id="Layer_1-2" data-name="Layer 1"><path d="M28,0a28,28,0,1,0,28,28A28,28,0,0,0,28,0Zm17.4,18.19c-.61.41-1.23.8-1.85,1.2l-.41-.06C43.86,19,44.61,18.56,45.37,18.19ZM38,10.84c-1,2.16-2.16,4.27-3.28,6.38l-.36-.73C35.56,14.59,36.76,12.7,38,10.84ZM42.17,14c-1.34,1.55-2.73,3.07-4.12,4.57l-.79-.12C38.87,17,40.5,15.48,42.17,14Zm-9-5.2c-.24,1.23-.5,2.45-.77,3.67L32.14,12C32.48,10.93,32.81,9.88,33.17,8.83ZM23.8,12l-.26.52c-.26-1.22-.53-2.44-.77-3.67C23.13,9.88,23.47,10.93,23.8,12Zm-2.22,4.51-.36.73C20.09,15.11,19,13,17.93,10.84,19.19,12.7,20.39,14.59,21.58,16.49Zm-4.06.89,1.17,1.1-.8.12-.77-.82C16,16.53,14.86,15.31,13.77,14,15.05,15.12,16.27,16.27,17.52,17.38Zm-4.66,1.95-.46.07c-.61-.4-1.22-.8-1.82-1.21Q11.74,18.74,12.86,19.33Zm-5,8.9c1.44-.11,2.88-.17,4.33-.24l.53.52C11.13,28.42,9.51,28.36,7.89,28.23ZM14.6,41.7l-.83.74c.28-.34.58-.66.87-1Zm1-6-.56.3c-1.5.75-3,1.54-4.49,2.27,1.38-1,2.8-1.84,4.21-2.76l1-.6Zm-2.14-3.3c-1.64.34-3.27.72-4.92,1,1.58-.56,3.19-1,4.78-1.57l2.17-.66.6.59ZM24.35,42.86c-.53,1.59-1,3.19-1.58,4.77.31-1.65.69-3.28,1-4.92l0-.09.71-.37Zm3.9.44c-.09,1.67-.15,3.35-.28,5-.13-1.67-.18-3.35-.28-5l-.09-2.67.37-.19.37.19Zm3.35-.44-.19-.61.71.37,0,.09c.34,1.64.72,3.27,1,4.92C32.61,46.05,32.12,44.45,31.6,42.86ZM34.54,40l-.25-.13L30.71,38,30,37.61h0l-1.58-.83L28,36.54l-.47.24-1.57.83h0l-.66.35-3.61,1.9-.07,0L18.1,41.73l.65-3.8h0l.21-1.2,1-6v0l-.48-.46-.2-.2-1.44-1.39-.43-.43-3.58-3.49-.29-.28L12,23l11-1.61,4.93-10,4.94,10,1.85.27.41.06L44,23l-1.82,1.77,0,0-6.13,6v0l.3,1.73.2,1.14.72,4.24v0l.65,3.81Zm6.8,1.7,0-.22c.28.32.58.64.86,1Zm-1-6-.14-.78c1.75,1.1,3.48,2.2,5.19,3.36C43.67,37.45,42,36.58,40.32,35.7Zm-.49-3.91.59-.58c2.33.7,4.65,1.43,6.95,2.22C44.84,32.94,42.33,32.37,39.83,31.79ZM43.2,28.5l.52-.5c1.44.06,2.89.13,4.34.23C46.44,28.35,44.82,28.43,43.2,28.5Z"/></g></g></svg>