<svg xmlns="http://www.w3.org/2000/svg" viewBox="0 0 55.94 55.94"><defs><style>.cls-1{fill:#fff;}</style></defs><title>Asset 336</title><g id="Layer_2" data-name="Layer 2"><g id="Layer_1-2" data-name="Layer 1"><path class="cls-1" d="M28,0a28,28,0,1,0,28,28A28,28,0,0,0,28,0ZM26.42,14.2a1,1,0,0,1,1-.8.93.93,0,0,1,.8,1l-.41,3a.94.94,0,0,1-.92.8h-.13a.93.93,0,0,1-.8-1.05Zm-5.74.5a.93.93,0,0,1,1.17.6l.94,2.86a.94.94,0,1,1-1.78.58l-.93-2.86A.94.94,0,0,1,20.68,14.7Zm-.54,11.11A.93.93,0,0,1,19.49,27l-2.91.8a1,1,0,0,1-.24,0A.93.93,0,0,1,16.09,26l2.9-.8A.92.92,0,0,1,20.14,25.81ZM15.05,20.5a.94.94,0,0,1,1.15-.66l2.9.79a.94.94,0,0,1-.24,1.84,1.07,1.07,0,0,1-.25,0l-2.9-.8A.93.93,0,0,1,15.05,20.5ZM32,36.18l-.66,2.94a.94.94,0,0,1-.92.73l-.2,0a.94.94,0,0,1-.71-1.12l.66-2.94a1,1,0,0,1,1.12-.7A.94.94,0,0,1,32,36.18ZM21,42.52a6.39,6.39,0,0,1-3.46,1.11,4.72,4.72,0,0,1-3.13-1.16,5.81,5.81,0,0,1-1.14-6.93C14.89,32,19.45,28,20.8,26.92a1.3,1.3,0,0,1,1.66,2c-2.46,2-5.73,5.27-6.85,7.7a3.27,3.27,0,0,0,.48,3.89c.89.76,2.16.7,3.49-.16,2.79-1.81,11.12-9.36,10.53-12a1.92,1.92,0,0,0-1.58-1.17c-.71-.09-1.71-.53-1.61-1.24a1.45,1.45,0,0,1,1.6-1.11c2.95.41,3.87,1.83,4.12,3C33.82,33.1,21.12,42.44,21,42.52ZM33.5,28a1.28,1.28,0,0,1,.14-1.82c2.41-2.09,5.61-5.39,6.68-7.85a3.25,3.25,0,0,0-.57-3.87c-.9-.74-2.17-.66-3.48.23C33.52,16.6,25.35,24.33,26,27c.15.61,1.31,1.16,2,1.23s1.06.38,1,1.09a1.17,1.17,0,0,1-1.13,1.17h-.15c-3-.35-3.9-1.75-4.18-2.88-1.3-5.3,11.2-14.9,11.33-15,2.28-1.54,4.8-1.58,6.59-.09a5.82,5.82,0,0,1,1.29,6.91c-1.56,3.59-6,7.62-7.36,8.77A1.29,1.29,0,0,1,33.5,28Zm3.3,11.87a1,1,0,0,1-.29.05,1,1,0,0,1-.89-.65l-.92-2.87a.93.93,0,0,1,1.77-.57l.93,2.86A.93.93,0,0,1,36.8,39.91ZM42.33,34a1,1,0,0,1-.9.68,1,1,0,0,1-.25,0l-2.91-.81a.93.93,0,0,1,.5-1.8l2.91.81A.94.94,0,0,1,42.33,34Zm.23-5.76-3,.54-.17,0a.93.93,0,0,1-.91-.77A.92.92,0,0,1,39.27,27l3-.55a.92.92,0,0,1,1.08.75A.93.93,0,0,1,42.56,28.27Z"/></g></g></svg>