<svg xmlns="http://www.w3.org/2000/svg" viewBox="0 0 55.94 55.94"><defs><style>.cls-1{fill:#fff;}</style></defs><title>OurStory</title><g id="Layer_2" data-name="Layer 2"><g id="Layer_4" data-name="Layer 4"><path class="cls-1" d="M28,0a28,28,0,1,0,28,28A28,28,0,0,0,28,0ZM48.41,22.49c-1,.32-2,.62-2.94.92a2.25,2.25,0,0,0,0-.26Zm-2.11-5.1c-.55.36-1.1.7-1.65,1.05l-.06-.15C45.16,18,45.72,17.68,46.3,17.39ZM44.46,27.78c1.56,0,3.12.11,4.68.19-1.63.09-3.25.15-4.87.2C44.34,28,44.4,27.91,44.46,27.78ZM42.94,13l-1.18,1.28-.11-.09C42.08,13.8,42.5,13.4,42.94,13ZM38.55,9.64c-.42.84-.87,1.67-1.3,2.5L37,12.08C37.52,11.27,38,10.45,38.55,9.64Zm-5.1-2.11c-.32,1.52-.67,3-1,4.54l-.43.1Q32.71,9.84,33.45,7.53ZM28,6.81c.13,2.43.21,4.86.27,7.28l-.25.19-.28-.22C27.77,11.65,27.84,9.23,28,6.81Zm-4,5.4c-.14,0-.29-.06-.44-.09-.35-1.53-.7-3.06-1-4.59C23,9.09,23.48,10.65,24,12.21Zm-5-.13-.24.06c-.44-.83-.88-1.66-1.31-2.5C17.92,10.45,18.42,11.27,18.94,12.08Zm-4.6,2.15-.12.1L13,13C13.46,13.41,13.89,13.83,14.34,14.23Zm-3,4.07-.07.15c-.55-.36-1.11-.7-1.67-1.06Zm-.9,4.86a2.25,2.25,0,0,1,0,.26c-1-.31-2-.61-2.95-.93C8.52,22.7,9.5,22.93,10.48,23.16Zm1,4.62.18.39c-1.63-.05-3.26-.11-4.89-.2C8.38,27.89,10,27.83,11.52,27.78Zm-4,5.67c2.09-.68,4.19-1.32,6.3-2,.12.15.23.29.36.43C12,32.46,9.76,33,7.53,33.45Zm9,.81.43.42C14.53,36,12.1,37.3,9.64,38.55,11.91,37.08,14.2,35.66,16.51,34.26ZM19,36.54l.45.41c-2.12,2-4.24,4-6.42,6C15,40.76,17,38.65,19,36.54ZM17.39,46.3c1.29-2.54,2.64-5,4-7.53.15.14.3.28.44.43C20.38,41.58,18.92,44,17.39,46.3Zm5.1,2.11c.49-2.3,1-4.6,1.58-6.89l.41.48C23.84,44.14,23.19,46.28,22.49,48.41Zm5.48.73c0-1-.08-2-.12-3l.11.13.14-.16C28.06,47.14,28,48.14,28,49.14ZM31.46,42l.42-.42c.55,2.28,1.08,4.57,1.57,6.86C32.75,46.27,32.1,44.12,31.46,42Zm2.46-7.53L32.32,36l-.08.08-3.46,3.39a5.76,5.76,0,0,0-.5.59h0l-.31.41-.31-.38q-.94-1.15-2-2.22l-.57-.58c-.49-.49-1-1-1.5-1.45l-.4-.38L22,34.32l-.44-.4-1.21-1.1-.44-.41-1.57-1.48h0l-.56-.53h0l0,0A15.47,15.47,0,0,1,16,28.29h0a10.36,10.36,0,0,1-1.66-3.7h0c0-.19-.06-.38-.09-.56a8.15,8.15,0,0,1,.41-4h0a7,7,0,0,1,2.29-3.16l.14-.11.09-.08a7.25,7.25,0,0,1,10.41,2.81l.06.12v0l.25.52,0,0a19.35,19.35,0,0,1,2.18-2.81A6.87,6.87,0,0,1,37.44,16a6.15,6.15,0,0,1,3.89,4l.14.44a9.73,9.73,0,0,1,.27,1.24,7.93,7.93,0,0,1,0,2.33h0a8.37,8.37,0,0,1-1.39,3.66h0q-.27.41-.6.81a24.24,24.24,0,0,1-1.68,1.84h0l-.13.14c-.6.61-1.21,1.21-1.83,1.81l-.16.16-.78.76L34,34.34Zm.26,4.86h0l.43-.42c1.34,2.45,2.67,4.92,3.94,7.42C37.05,44,35.61,41.65,34.18,39.3ZM36.54,37l.44-.42c2,2.1,4,4.22,6,6.39C40.77,41,38.65,39,36.54,37Zm2.39-2.33.43-.43c2.33,1.42,4.65,2.85,6.94,4.34C43.82,37.29,41.37,36,38.93,34.64Zm2.7-2.74.38-.43c2.14.64,4.28,1.29,6.4,2C46.14,33,43.89,32.44,41.63,31.9Z"/></g></g></svg>