<svg xmlns="http://www.w3.org/2000/svg" viewBox="0 0 55.94 55.94"><title>Asset 248</title><g id="Layer_2" data-name="Layer 2"><g id="Layer_1-2" data-name="Layer 1"><path d="M33.37,21.74a8.24,8.24,0,1,0,.83,11.63A8.25,8.25,0,0,0,33.37,21.74Z"/><path d="M28,0a28,28,0,1,0,28,28A28,28,0,0,0,28,0ZM46.33,31.2H42.82a14.91,14.91,0,0,1-2.06,5l2.48,2.49-4.57,4.57-2.48-2.48a15.29,15.29,0,0,1-5,2.06v3.51H24.74V42.82a14.91,14.91,0,0,1-5-2.06l-2.48,2.48L12.7,38.67l2.49-2.48a15.32,15.32,0,0,1-2.07-5H9.61V24.74h3.51a15.14,15.14,0,0,1,2.07-5L12.7,17.28l4.58-4.58,2.48,2.49a15.18,15.18,0,0,1,5-2.07V9.61H31.2v3.51a15.28,15.28,0,0,1,5,2.07l2.48-2.49,4.57,4.58-2.48,2.48a15.15,15.15,0,0,1,2.06,5h3.51Z"/></g></g></svg>