<svg xmlns="http://www.w3.org/2000/svg" viewBox="0 0 55.94 55.94"><defs><style>.cls-1{fill:#fff;}</style></defs><title>Asset 295</title><g id="Layer_2" data-name="Layer 2"><g id="Layer_1-2" data-name="Layer 1"><path class="cls-1" d="M28,0a28,28,0,1,0,28,28A28,28,0,0,0,28,0Zm-3.2,11.62a6.27,6.27,0,1,1-6.27,6.26A6.26,6.26,0,0,1,24.77,11.62ZM10.1,42.12c0-9.12,6.57-16.51,14.67-16.51a13.25,13.25,0,0,1,5.56,1.23l-.11.06-2.91,1.65-2.92,1.66L26,33.12l5.11,9Zm27.55-.54a1.29,1.29,0,0,1-.22.3,1.42,1.42,0,0,1-.25.24h0a1.69,1.69,0,0,1-1,.35h0a1.64,1.64,0,0,1-1-.35h0a1.64,1.64,0,0,1-.24-.21,1.86,1.86,0,0,1-.21-.28h0l-3-5.24L29,31.47l1.94-1.1,1-.55h0l4.25,7.49,1.58-3h0l8.51-16.08,3,1.57L38.29,40.37Z"/></g></g></svg>