<svg xmlns="http://www.w3.org/2000/svg" viewBox="0 0 55.94 55.94"><title>Asset 261</title><g id="Layer_2" data-name="Layer 2"><g id="Layer_1-2" data-name="Layer 1"><path d="M28,0a28,28,0,1,0,28,28A28,28,0,0,0,28,0ZM41,40.64l-.06-.84a2.17,2.17,0,0,0,1.89-2.22c-.06-1-.65-1.61-2-2-1-.3-1.4-.51-1.43-.89s.2-.65.94-.69a3.92,3.92,0,0,1,1.66.28l.25-1.3a4.15,4.15,0,0,0-1.67-.27l-.06-1-1.12.07.07,1.08A2.1,2.1,0,0,0,37.64,35c.07,1.1.93,1.61,2.17,1.94.86.23,1.24.48,1.27.92s-.4.73-1,.77a4.07,4.07,0,0,1-1.91-.38l-.26,1.34a4.53,4.53,0,0,0,2,.37L39.88,41l.28,0-7.37,3.4-5.51-2a31.78,31.78,0,0,1-3.83-.15,27.85,27.85,0,0,0-4.22-.13c-.63,0-1.3.17-2,.29-2.06.37-4.39.78-6.47-.66s-2.12-4-1.59-6.47v0c.09-.39.19-.77.31-1.14,0,0,1.09-3.2,2.49-3.27.27,0,.79.08,1.18.86l-1,.52C12,31.94,12,32,12,32c-.19,0-.52.53-.83,1.1h0c-.13.23-.25.48-.36.72v0c-.1.24-.2.47-.26.67A11,11,0,0,0,10,37.39a3.78,3.78,0,0,0,1.33,3.36c1.7,1.18,3.71.82,5.65.48a18.62,18.62,0,0,1,2.12-.3,28.69,28.69,0,0,1,4.39.12,30.71,30.71,0,0,0,3.59.16L29,36.13l4.4-2,0,.3a2.1,2.1,0,0,0-1.79,2.14c.07,1.1.93,1.61,2.17,2,.86.23,1.24.48,1.26.91s-.4.73-1,.77a4,4,0,0,1-1.92-.38l-.25,1.35a4.47,4.47,0,0,0,2,.36l.07,1.08L35,42.51l-.07-1.16a2.17,2.17,0,0,0,1.89-2.22c-.06-1-.65-1.61-2-2-1-.3-1.4-.52-1.42-.89s.2-.65.94-.7a3.68,3.68,0,0,1,1.65.29l.25-1.31a4.09,4.09,0,0,0-1.67-.27l0-.65,8.78-4.05,3.82,8.28Zm-11.85-11a11.86,11.86,0,0,1-18.52,8.14,10,10,0,0,1,.48-3.13,8.83,8.83,0,0,1,.72-1.56,3.24,3.24,0,0,0,.75-.11,3.64,3.64,0,1,0-3-.58,12.15,12.15,0,0,0-.64,1.48,14.08,14.08,0,0,0-.47,2A11.87,11.87,0,1,1,28.24,23.34L41.63,19.9l1,1,1,1,.41-1.37.4-1.36h0l1,1,1,1,.41-1.37.4-1.36.57-.15L51,19.82l-1.51,4.63Z"/></g></g></svg>