<svg xmlns="http://www.w3.org/2000/svg" viewBox="0 0 55.94 55.94"><defs><style>.cls-1{fill:#fff;}</style></defs><title>Asset 342</title><g id="Layer_2" data-name="Layer 2"><g id="Layer_1-2" data-name="Layer 1"><path class="cls-1" d="M28,0a28,28,0,1,0,28,28A28,28,0,0,0,28,0ZM46.06,14.3l-16,9.61-16-9.61Zm-33.94,0ZM23.26,44.5a10.19,10.19,0,0,1-6,.74,9.37,9.37,0,0,1-1.48-.45A9,9,0,0,1,14.13,44a9.14,9.14,0,0,1-1.24-1.08A25.6,25.6,0,0,1,10,39.35a47.12,47.12,0,0,1-3.51-5.72A15.54,15.54,0,0,1,5,30a9,9,0,0,1,0-4.77,10.11,10.11,0,0,1,3.45-5c2.47-1.95,5.17,1.9,6.28,4.32a2,2,0,0,1,.19.94,2.69,2.69,0,0,1-.82,1.62,5.23,5.23,0,0,1-.49.45,11.05,11.05,0,0,1-.89.68l-.45.31a9.44,9.44,0,0,1-1.74,1l5.45,8.79h0a8.81,8.81,0,0,1,1.69-1.08c1.47-.78,3.5-1.85,4.69-.32C24,39,26.13,43.23,23.26,44.5Zm.08-8.67a3.39,3.39,0,0,0-2.59-1.15,8,8,0,0,0-3.57,1.15h-1l-1.37-2.21c-.83-1.34-1.63-2.61-2.19-3.53l.48-.32c1.4-.95,4.31-2.93,3-5.85-.33-.72-1.76-3.63-3.92-5V15.47L30.06,26.23,48,15.47V35.83Z"/></g></g></svg>