<svg xmlns="http://www.w3.org/2000/svg" viewBox="0 0 55.94 55.94"><defs><style>.cls-1{fill:#fff;}</style></defs><title>Asset 330</title><g id="Layer_2" data-name="Layer 2"><g id="Layer_1-2" data-name="Layer 1"><path class="cls-1" d="M28,0a28,28,0,1,0,28,28A28,28,0,0,0,28,0ZM9.66,16.43a4.32,4.32,0,0,1,5.19-3.24,4.17,4.17,0,0,1,1.69.82,4.32,4.32,0,0,0-2.82,7.72,4.72,4.72,0,0,1-.83-.11A4.33,4.33,0,0,1,9.66,16.43ZM36.33,44H28.79V35H22.94v9h-7.2V25.35H12.92L26.65,8.91,39.16,25.35H36.33Zm4.31-9.89v6.17H37.78V26.8h4.29l-1.76-2.32L36.88,20l2.55-4.41,5.63,10.66H43.44L46,30h-2.3l3.11,4.09Z"/></g></g></svg>