<svg xmlns="http://www.w3.org/2000/svg" viewBox="0 0 55.94 55.94"><defs><style>.cls-1{fill:#fff;}</style></defs><title>Asset 341</title><g id="Layer_2" data-name="Layer 2"><g id="Layer_1-2" data-name="Layer 1"><rect class="cls-1" x="14.46" y="29.42" width="3.72" height="3.72"/><rect class="cls-1" x="20.86" y="22.96" width="3.72" height="3.72"/><rect class="cls-1" x="33.66" y="22.96" width="3.72" height="3.72"/><rect class="cls-1" x="14.49" y="35.38" width="3.72" height="3.72"/><rect class="cls-1" x="27.26" y="22.96" width="3.72" height="3.72"/><rect class="cls-1" x="20.86" y="29.42" width="3.72" height="3.72"/><rect class="cls-1" x="14.46" y="22.96" width="3.72" height="3.72"/><rect class="cls-1" x="20.89" y="35.38" width="3.72" height="3.72"/><rect class="cls-1" x="27.29" y="35.38" width="3.72" height="3.72"/><rect class="cls-1" x="27.26" y="29.42" width="3.72" height="3.72"/><path class="cls-1" d="M28,0a28,28,0,1,0,28,28A28,28,0,0,0,28,0ZM10.13,14.66H17V10.82h3.63v3.84h9.66V10.82h3.64v3.84h7.51v3.63H10.13Zm0,28.07v-23H41.44V35.44l-1.32,2.48-2.64-4.66-.1-.17V29.42H33.66v3.72h.75l-1.94,1.1-1.41.8.8,1.41,3.56,6.28ZM41.65,45.4a1.59,1.59,0,0,1-1.4.86h0a1.61,1.61,0,0,1-1.4-.82l-5.13-9-.43-.76.48-.27,2.34-1.32,4.09,7.23,1.27-2.39,8.46-16,2.86,1.51Z"/></g></g></svg>