<svg xmlns="http://www.w3.org/2000/svg" viewBox="0 0 55.94 55.94"><defs><style>.cls-1{fill:#fff;}</style></defs><title>Asset 324</title><g id="Layer_2" data-name="Layer 2"><g id="Layer_1-2" data-name="Layer 1"><path class="cls-1" d="M28,0a28,28,0,1,0,28,28A28,28,0,0,0,28,0Zm9.55,15.89,2.6,10.35a1.72,1.72,0,0,1-1.55.81,1.85,1.85,0,0,1-1.38-.56l-2.46-10.6Zm-3.27,0,2.43,10.48a1.82,1.82,0,0,1-1.48.68A2,2,0,0,1,34,26.64L31.73,15.89Zm-3,0L33.4,26.21a1.72,1.72,0,0,1-1.57.84,1.9,1.9,0,0,1-1.23-.42L28.36,15.89Zm-3.37,0L30,26.22a1.71,1.71,0,0,1-1.56.83,1.89,1.89,0,0,1-1.32-.49L25.59,15.89ZM26.64,26.28a1.78,1.78,0,0,1-1.54.77,1.8,1.8,0,0,1-1.48-.69L25.14,16Zm-2-10.39L23.13,26.48a1.88,1.88,0,0,1-1.4.57,1.74,1.74,0,0,1-1.53-.77l2.17-10.39Zm-2.79,0L19.66,26.57a1.9,1.9,0,0,1-1.3.48,1.7,1.7,0,0,1-1.59-.89l2.15-10.27Zm-3.45,0L16.18,26.67a1.89,1.89,0,0,1-1.18.38,1.73,1.73,0,0,1-1.56-.81l2.39-10.35Zm-5.85,0h2.75L12.87,26.62a1.88,1.88,0,0,1-1.24.43A1.75,1.75,0,0,1,10,26.14l2.48-9.83ZM6.8,25.75c0-.19,2.65-9.86,2.65-9.86H12.1l-2.76,11a2,2,0,0,1-.85.19A1.53,1.53,0,0,1,6.8,25.75ZM41.05,33v7.06h-3.9V31.67H31.63v8.38H9.23V28.26a3,3,0,0,0,.8-.32,3.31,3.31,0,0,0,1.68.44l.2,0v5.29H26.78V27.94a3.45,3.45,0,0,0,3.37,0,3.45,3.45,0,0,0,3.37,0,3.31,3.31,0,0,0,1.68.44,3.35,3.35,0,0,0,1.69-.44,3.28,3.28,0,0,0,1.68.44,3.81,3.81,0,0,0,.6-.06,2.94,2.94,0,0,0,.53-.14l.07,0a2.62,2.62,0,0,0,.48-.22,3,3,0,0,0,.8.32Zm1.3-6h0a2.71,2.71,0,0,1-.41,0,1.9,1.9,0,0,1-1.23-.42L38,15.89h3s.61,2.21,1.24,4.54l0,.14c0,.08,0,.17.07.26a1.21,1.21,0,0,0,0,.18c0,.12.06.24.1.37h0c.12.46.24.91.36,1.34l0,.08.1.37,0,.06c0,.11.06.22.08.33l0,.09.06.24a1.05,1.05,0,0,1,0,.19l.05.17,0,.15.06.24,0,.07c0,.06,0,.12,0,.18l0,.12,0,.12,0,.12,0,.11,0,.09a.29.29,0,0,1,0,.09l0,.06a.64.64,0,0,0,0,.07v0a.13.13,0,0,1,0,.05,1,1,0,0,1,0,.24l0,.08a.94.94,0,0,1-.06.15.41.41,0,0,1,0,.09,1,1,0,0,1-.08.11l-.08.1a.6.6,0,0,0-.08.08l-.13.1,0,0a1.81,1.81,0,0,1-.68.28Zm2.55,6v5H42.59V28.54a2.92,2.92,0,0,0,2.57-2.79c0-.24,0-.37-1.87-7.26l.33-.6,4.62,8.75H46.93l2.06,3H47.13L49.65,33Z"/></g></g></svg>