<svg xmlns="http://www.w3.org/2000/svg" viewBox="0 0 55.94 55.94"><defs><style>.cls-1{fill:#fff;}</style></defs><title>Asset 326</title><g id="Layer_2" data-name="Layer 2"><g id="Layer_1-2" data-name="Layer 1"><path class="cls-1" d="M9.71,26.2a1.14,1.14,0,1,0,1.14,1.14A1.13,1.13,0,0,0,9.71,26.2Z"/><path class="cls-1" d="M28.52,7a1.14,1.14,0,1,0,1.14,1.14A1.13,1.13,0,0,0,28.52,7Z"/><path class="cls-1" d="M28.52,45a1.14,1.14,0,0,0,0,2.27,1.14,1.14,0,1,0,0-2.27Z"/><path class="cls-1" d="M28,0a28,28,0,1,0,28,28A28,28,0,0,0,28,0Zm3.9,47.5a3.43,3.43,0,0,1-.94,1.77,2.54,2.54,0,0,0-4.81,0,3.44,3.44,0,0,1-.95-1.84,19.93,19.93,0,0,1-16-16,3.31,3.31,0,0,0,.55.05,3.45,3.45,0,0,0,1.2-.22A18.18,18.18,0,0,0,25.34,45.69a3.46,3.46,0,0,1,.95-1.37c-.18,0-.37,0-.55-.06a31.6,31.6,0,0,1-5.36-6c1.17-.25,2.33-.43,3.47-.56A28.22,28.22,0,0,0,27,43.83a3.47,3.47,0,0,1,.91-.3,27.4,27.4,0,0,1-3.11-5.9c1.16-.09,2.31-.12,3.43-.1v6l.27,0a3,3,0,0,1,.67.08v-6a34.06,34.06,0,0,1,3.4.32,27.56,27.56,0,0,1-3.08,5.74,3.16,3.16,0,0,1,.85.4,28.47,28.47,0,0,0,3.19-6c1.13.19,2.23.42,3.29.69a32.51,32.51,0,0,1-5,5.52c-.33.06-.65.11-1,.15a3.38,3.38,0,0,1,.9,1.36A18.17,18.17,0,0,0,46.53,31.26a3.37,3.37,0,0,0,1.2.22,3.29,3.29,0,0,0,.54-.05A19.92,19.92,0,0,1,31.87,47.5ZM23.22,27.78a31.52,31.52,0,0,1,1.24-7.59c1.23.18,2.5.3,3.79.36v7.23Zm5,.93v7.88a33.87,33.87,0,0,0-3.75.12,25.08,25.08,0,0,1-1.23-6c-.05-.67-.06-1.33-.06-2Zm-3.51-9.44a44.81,44.81,0,0,1,3.46-8h.05v8.34C27.05,19.55,25.88,19.44,24.74,19.27Zm-.94-.14c-1-.17-2-.38-3-.62a38.7,38.7,0,0,1,6.2-7A44.92,44.92,0,0,0,23.8,19.13Zm-4-.88c-1.3-.35-2.53-.76-3.71-1.19a16.58,16.58,0,0,1,9.39-5.49A37.54,37.54,0,0,0,19.81,18.25Zm.47,1.09c1,.27,2.14.51,3.26.7a32.18,32.18,0,0,0-1.26,7.74H17.34A18.72,18.72,0,0,1,20.28,19.34Zm2,9.37c0,.68,0,1.37.07,2.05a26.08,26.08,0,0,0,1.2,6,35.33,35.33,0,0,0-3.7.63,16.35,16.35,0,0,1-2.56-8.56c0-.05,0-.1,0-.16ZM23.9,43.82a16.66,16.66,0,0,1-7.25-4.49c.92-.31,1.85-.6,2.76-.82A30,30,0,0,0,23.9,43.82Zm13.5-5.93c-1.14-.3-2.32-.55-3.53-.76a26.43,26.43,0,0,0,1.31-6.37c0-.68.07-1.37.07-2.05h5c0,.05,0,.1,0,.16A16.63,16.63,0,0,1,37.4,37.89ZM37.79,39c.89.25,1.74.52,2.57.81a16.62,16.62,0,0,1-6.71,4A30.47,30.47,0,0,0,37.79,39ZM35.23,27.78a31.81,31.81,0,0,0-1.16-7.43,32.84,32.84,0,0,0,3.43-.59,18.43,18.43,0,0,1,2.67,8ZM32,11.58a16.6,16.6,0,0,1,9.68,6A32.76,32.76,0,0,1,38,18.68,37,37,0,0,0,32,11.58ZM37,18.91c-1.06.23-2.12.4-3.16.52a44.18,44.18,0,0,0-3.3-7.91A38.29,38.29,0,0,1,37,18.91Zm-4.1.61a32.52,32.52,0,0,1-3.67.12V11.27h.12A44.51,44.51,0,0,1,32.86,19.52ZM29.93,20.6c1.05,0,2.12-.05,3.19-.15a30.41,30.41,0,0,1,1.17,7.33h-5.1v-7.2Zm4.38,8.11c0,.66,0,1.32-.07,2A25.35,25.35,0,0,1,32.93,37a37.32,37.32,0,0,0-3.74-.36V28.71Zm13.42,0a2.66,2.66,0,0,0-2.41,1.73c-.06-.06-.1-.13-.16-.19A16.53,16.53,0,0,1,41.06,39c-.88-.31-1.78-.61-2.73-.88a17.37,17.37,0,0,0,2.84-9.28c0-.06,0-.11,0-.16h3.22a3.21,3.21,0,0,1-.06-.63,2.83,2.83,0,0,1,0-.3H41.11a19.39,19.39,0,0,0-2.62-8.25,34.42,34.42,0,0,0,3.82-1.22,16.5,16.5,0,0,1,2.9,7.49,3.46,3.46,0,0,1,1.39-.92A18.19,18.19,0,0,0,31.72,10a3.49,3.49,0,0,1-.79,1.27,2.54,2.54,0,0,0-4.81,0,3.41,3.41,0,0,1-.78-1.2,18.17,18.17,0,0,0-14.5,14.82,3.46,3.46,0,0,1,1.39.92,16.5,16.5,0,0,1,3.26-8c1.2.45,2.47.88,3.81,1.25a19.63,19.63,0,0,0-2.9,8.7H13.09a2.77,2.77,0,0,1,0,.3,3.2,3.2,0,0,1-.07.63h3.3v.16a17.17,17.17,0,0,0,2.54,8.79c-1,.25-1.95.56-2.93.91a16.51,16.51,0,0,1-3.69-8.29c0,.06-.09.13-.15.19a2.66,2.66,0,0,0-2.41-1.73,2.66,2.66,0,0,0-2.4,1.72,3.32,3.32,0,0,1-1-2.38,3.41,3.41,0,0,1,2.78-3.35A19.91,19.91,0,0,1,25.17,8.32a3.4,3.4,0,0,1,6.7-.07A19.93,19.93,0,0,1,48.35,24.73a3.41,3.41,0,0,1,2.78,3.35,3.36,3.36,0,0,1-1,2.38A2.66,2.66,0,0,0,47.73,28.74Z"/><path class="cls-1" d="M47.73,26.2a1.14,1.14,0,1,0,1.13,1.14A1.14,1.14,0,0,0,47.73,26.2Z"/></g></g></svg>