<svg xmlns="http://www.w3.org/2000/svg" viewBox="0 0 55.94 55.94"><defs><style>.cls-1{fill:#fff;}</style></defs><title>Asset 321</title><g id="Layer_2" data-name="Layer 2"><g id="Layer_1-2" data-name="Layer 1"><path class="cls-1" d="M28,0a28,28,0,1,0,28,28A28,28,0,0,0,28,0ZM23.4,39.6a16.29,16.29,0,0,0-6.93-.47c-2.26.33-4.07,1.23-6.27,1.8-.25.06-.46-.19-.46-.45V15.61a.44.44,0,0,1,.77-.29l.57.65a.44.44,0,0,1,.11.29V38.51a.44.44,0,0,0,.63.4,13.41,13.41,0,0,1,16,3.59A9.56,9.56,0,0,0,23.4,39.6Zm4.39,1.57a13.54,13.54,0,0,0-15.73-3.41v-23s10.7-4.54,15.73,3.4Zm1.14-23c5-7.94,15.72-3.4,15.72-3.4v23a13.53,13.53,0,0,0-15.72,3.41ZM47,40.48c0,.26-.22.51-.46.45-2.21-.57-4-1.47-6.27-1.8a16.28,16.28,0,0,0-6.93.47,9.45,9.45,0,0,0-4.39,2.9,13.41,13.41,0,0,1,16-3.59.45.45,0,0,0,.63-.4V16.26a.39.39,0,0,1,.11-.29l.57-.65a.44.44,0,0,1,.77.29Z"/></g></g></svg>