<svg xmlns="http://www.w3.org/2000/svg" viewBox="0 0 55.94 55.94"><defs><style>.cls-1{fill:#fff;}</style></defs><title>Asset 316</title><g id="Layer_2" data-name="Layer 2"><g id="Layer_1-2" data-name="Layer 1"><path class="cls-1" d="M31.56,13.9H24.14a.09.09,0,0,0-.09.09v2.39h7.6V14A.09.09,0,0,0,31.56,13.9Z"/><path class="cls-1" d="M28,0a28,28,0,1,0,28,28A28,28,0,0,0,28,0ZM44.88,39.32h-4a2.66,2.66,0,1,1-4.17,0H18.93A2.59,2.59,0,0,1,19.51,41a2.66,2.66,0,0,1-5.32,0,2.59,2.59,0,0,1,.58-1.63h-3.7V16.38h4.62V38.57a2.54,2.54,0,0,1,2.32,0V16.38h3.14V14a3,3,0,0,1,3-3h7.42a3,3,0,0,1,3,3v2.39h3.09V38.57a2.52,2.52,0,0,1,2.31,0V16.38h4.93Z"/></g></g></svg>