<svg xmlns="http://www.w3.org/2000/svg" viewBox="0 0 55.94 55.94"><title>Asset 285</title><g id="Layer_2" data-name="Layer 2"><g id="Layer_1-2" data-name="Layer 1"><path d="M28,0a28,28,0,1,0,28,28A28,28,0,0,0,28,0Zm22,32a6,6,0,0,0-2.22.23,9.23,9.23,0,0,0-2,.72,12.7,12.7,0,0,0-4.53,4.12,15.48,15.48,0,0,0-1.3,2.18,6.11,6.11,0,0,0-.73,1.93c0,.13,0,.63-.22.52-.08,0-.16-.17-.2-.25-1.45-3,.2-7.15,1.51-9.55.72-1.33-3.89-3.12-4.1-3.21,0,0-8.85-3.61-13.58-1.95-.46.16-.93.29-1.39.41-.06.88.63,1.74,1,2.49.11.21.28.59-.09.53a3.64,3.64,0,0,1-1.71-1.1,7.19,7.19,0,0,1-1.26-1.55,26.71,26.71,0,0,1-8.14-1c-1.41-.81-4.8.26-5.53-.18-1.47-.9,3.73-2.89,3.73-2.89a13.32,13.32,0,0,1,4-4.35,23.18,23.18,0,0,1,5.15-2.66,15.9,15.9,0,0,1,7.46-1.07l.59-.43a9.88,9.88,0,0,1,1.9-.94,11.18,11.18,0,0,1,3.76-.7,6,6,0,0,1,3.3.5c.53.33-.11.62-.46.76-1.31.53-3.16.84-4,2.09A19,19,0,0,1,41.79,28.5a12.86,12.86,0,0,1,.46,2c3.71-1.17,8,.23,8.37.95S49.94,32,49.94,32Z"/></g></g></svg>