<svg xmlns="http://www.w3.org/2000/svg" viewBox="0 0 55.94 55.94"><defs><style>.cls-1{fill:#fff;}</style></defs><title>Asset 319</title><g id="Layer_2" data-name="Layer 2"><g id="Layer_1-2" data-name="Layer 1"><path class="cls-1" d="M28,0a28,28,0,1,0,28,28A28,28,0,0,0,28,0ZM20.56,11.32a.32.32,0,0,1,0,.09,2,2,0,0,1-1.7,2.15,2,2,0,0,1-2.46-1.22.55.55,0,0,1,0-.18A4.89,4.89,0,0,0,20.56,11.32ZM9.47,15.88l.14-.09C11,15,14.48,12.35,15.18,12.7c.25.12.28.5.44.73a2.62,2.62,0,0,0,.85.77,3.79,3.79,0,0,0,2.48.32,3.71,3.71,0,0,0,2.19-1.28,2.87,2.87,0,0,0,.67-1.35c0-.29,0-.71.26-.75.66-.1,5.08.85,6.15,1a.41.41,0,0,1,.35.47L28,16.53a.41.41,0,0,1-.44.35L26.34,16a1.53,1.53,0,0,0-.91-.3,1.56,1.56,0,0,0-1.35.78,1.58,1.58,0,0,0,0,1.55l2.26,3.9.83,4.17H15.34L14,19.4a.41.41,0,0,0-.62-.28L11.92,20a.41.41,0,0,1-.57-.14l-2-3.4A.41.41,0,0,1,9.47,15.88ZM45.87,37a7.22,7.22,0,0,1-7.44,6.94H18.72A7.21,7.21,0,0,1,11.29,37V27.4H45.87Zm.57-19.64-5,8.64a.23.23,0,0,1-.19.1H30.41a.22.22,0,0,1-.18-.1l-4.71-8.15h0l-.28-.49a.16.16,0,0,1,0-.13s0,0,0,0l0-.06a.2.2,0,0,1,.29-.05l3.11,2.26a1.44,1.44,0,0,0,1.52.11l5-2.6,0-6.6a2,2,0,0,0-.31-1.31.88.88,0,0,0-.73-.26c-.77,0-1,1.79-1,2.45H31.36c0-1.57.59-4.23,2.79-4.23a2.62,2.62,0,0,1,2.06.85A3.68,3.68,0,0,1,37,10.38v6.71l4.61,2.4a1.25,1.25,0,0,0,1.34-.1l3.2-2.32A.21.21,0,0,1,46.44,17.35Z"/></g></g></svg>