<svg xmlns="http://www.w3.org/2000/svg" viewBox="0 0 55.94 55.94"><defs><style>.cls-1{fill:#fff;}</style></defs><title>Asset 318</title><g id="Layer_2" data-name="Layer 2"><g id="Layer_1-2" data-name="Layer 1"><path class="cls-1" d="M28,0a28,28,0,1,0,28,28A28,28,0,0,0,28,0ZM48.16,21.76c-2.8,1-5.63,1.84-8.46,2.69-.06-.26-.13-.53-.18-.79C42.39,23,45.26,22.32,48.16,21.76Zm.71,5.41c-2.72.2-5.45.3-8.17.39,0-.1-.09-.19-.12-.29l-.07-.15c0-.11-.07-.23-.11-.34C43.22,26.87,46.05,27,48.87,27.17Zm-9.71-6c0-.28,0-.56-.06-.84,2.3-1.24,4.62-2.45,7-3.6C43.8,18.26,41.48,19.72,39.16,21.16Zm3.59-8.77c-1.32,1.53-2.68,3-4,4.49l-.06-.25c0-.15-.1-.28-.14-.42C39.91,14.92,41.31,13.64,42.75,12.39ZM38.42,9.07c-.59,1.22-1.21,2.42-1.83,3.62l-.32-.33C37,11.26,37.69,10.16,38.42,9.07ZM33.38,7c-.18,1-.4,1.92-.6,2.87l-.29-.13C32.78,8.81,33.07,7.89,33.38,7ZM28,6.27c0,.25,0,.5,0,.76h-.08C28,6.77,28,6.52,28,6.27ZM23.45,9.69l-.29.13c-.2-.94-.41-1.89-.6-2.84C22.87,7.88,23.15,8.79,23.45,9.69Zm-3.83,2.59,0,0c-.1.1-.17.21-.27.32-.61-1.18-1.22-2.36-1.8-3.56C18.24,10.13,18.93,11.21,19.62,12.28Zm-2.53,3.6.29.27c-.07.23-.14.45-.2.68l-.5-.53c-1.16-1.31-2.35-2.58-3.49-3.91C14.52,13.53,15.79,14.72,17.09,15.88Zm-2.55,3.2,2.22,1.19c0,.29,0,.58,0,.86l-2.49-1.54c-1.46-1-2.94-1.88-4.38-2.87C11.45,17.48,13,18.3,14.54,19.08Zm-1.63,3.75,3.67.86a.34.34,0,0,0,0,.1c0,.25-.1.48-.15.72L12.75,23.4c-1.65-.55-3.32-1.06-5-1.64C9.5,22.08,11.2,22.48,12.91,22.83Zm-.61,4.05,3.58-.12q-.12.42-.27.81l-3.31-.1c-1.75-.1-3.49-.16-5.23-.3C8.81,27,10.55,27,12.3,26.88Zm-4.52,5.7c1.65-.58,3.32-1.09,5-1.63l1.49-.45c-.17.29-.37.56-.56.83l-.77.18C11.2,31.87,9.5,32.26,7.78,32.58ZM13.19,42c.44-.5.88-1,1.33-1.49h.36C14.32,41,13.77,41.46,13.19,42Zm7.2-1.06c-1,1.46-1.88,2.94-2.87,4.38.75-1.57,1.57-3.11,2.36-4.67l.08-.14h.7Zm2.17,6.47c.32-1.72.72-3.41,1.07-5.12l0-.17a4.82,4.82,0,0,0,.51.38C23.64,44.09,23.14,45.73,22.56,47.36Zm5.41.71c-.11-1.48-.18-3-.25-4.46l.25,0h.26C28.15,45.1,28.09,46.59,28,48.07Zm3.8-5.62.5-.38,0,.17c.36,1.71.75,3.4,1.07,5.12C32.81,45.74,32.3,44.09,31.77,42.45Zm3.79-1.56-.28-.43H36l.07.14c.79,1.56,1.61,3.1,2.36,4.67C37.43,43.83,36.51,42.35,35.56,40.89Zm5.52-.43h.33c.45.5.9,1,1.34,1.49Zm1.49-3H31.47a3,3,0,0,1-.1.74h0a3.66,3.66,0,0,1-.22.58h0a3.67,3.67,0,0,1-.34.53h0a3.55,3.55,0,0,1-2.47,1.29c-.11,0-.21,0-.32,0H28a4,4,0,0,1-1.16-.2,3,3,0,0,1-.38-.15,3.33,3.33,0,0,1-1.34-1h0a3.5,3.5,0,0,1-.29-.49l0,0a2.47,2.47,0,0,1-.18-.52h0a2.6,2.6,0,0,1-.11-.74H13.36a.53.53,0,0,1-.39-.93c.39-.33.76-.68,1.12-1A16.78,16.78,0,0,0,15.43,34c.05-.07.12-.13.17-.2a18.11,18.11,0,0,0,2.36-4l.22-.51h0c.22-.54.41-1.1.58-1.65.1-.33.2-.65.28-1s.21-.88.3-1.32v-.05c.07-.36.14-.73.19-1.1a11.05,11.05,0,0,0,.13-1.29c0-.35,0-.7.05-1.05a33.48,33.48,0,0,1,.2-3.35h0a7.88,7.88,0,0,1,1-2.95h0a6,6,0,0,1,.42-.65h0a5.82,5.82,0,0,1,.47-.56,7.74,7.74,0,0,1,2-1.53,4.94,4.94,0,0,1,.57-.26A8.56,8.56,0,0,1,26,12a1.49,1.49,0,0,1,0-.21A1.84,1.84,0,0,1,27.77,10l.2,0h0l.19,0a1.83,1.83,0,0,1,1.74,1.75,1.64,1.64,0,0,1,0,.23,8.83,8.83,0,0,1,1.66.58h0a5.85,5.85,0,0,1,.56.28h0a8,8,0,0,1,1.5,1,7.07,7.07,0,0,1,1,1.09h0c.15.21.3.43.43.65a6.41,6.41,0,0,1,.72,1.71,29.32,29.32,0,0,1,.45,4.49c0,.25.07.5.1.74.08.59.18,1.18.3,1.76.07.31.15.61.22.92s.18.74.28,1.11v0c.1.32.22.63.33.95l.09.28c.07.19.12.38.19.56a.94.94,0,0,1,.06.15c.15.37.31.73.47,1.1a2.56,2.56,0,0,1,.11.24c0,.1.08.2.13.3a.59.59,0,0,1,0,.08c0,.08.08.16.13.24l.09.19c.21.41.42.82.65,1.22.11.19.23.38.35.56.23.38.45.76.7,1.12s.42.57.63.85l.18.24h0c.13.18.26.36.4.53l.58.65c.24.27.46.54.71.8l.08.08a.49.49,0,0,1,.1.22s0,0,0,.07A.57.57,0,0,1,42.57,37.46Zm.18-6c-.14-.21-.27-.42-.4-.63l-.05-.07,0-.07c2,.61,3.94,1.24,5.89,1.91C46.35,32.23,44.55,31.84,42.75,31.44Z"/></g></g></svg>