<svg xmlns="http://www.w3.org/2000/svg" viewBox="0 0 55.94 55.94"><defs><style>.cls-1{fill:#fff;}</style></defs><title>Asset 322</title><g id="Layer_2" data-name="Layer 2"><g id="Layer_1-2" data-name="Layer 1"><rect class="cls-1" x="14.55" y="22.78" width="25" height="0.98"/><path class="cls-1" d="M40.74,37.07a1.23,1.23,0,0,0,0,2.46h0a1.23,1.23,0,0,0,0-2.46Z"/><rect class="cls-1" x="14.55" y="18.38" width="25" height="0.98"/><path class="cls-1" d="M28,0a28,28,0,1,0,28,28A28,28,0,0,0,28,0ZM24.4,34.83v4.56l-4.56-4.56H10.4V15H43.29V26a9,9,0,0,0-7.22,1.16H14.55v1H34.82a9.08,9.08,0,0,0-2.93,6.68ZM41,42a7.17,7.17,0,1,1,7.17-7.16A7.16,7.16,0,0,1,41,42Z"/><path class="cls-1" d="M40.93,30.12a4.6,4.6,0,0,0-2.25.56l.46,1.47a2.57,2.57,0,0,1,1.33-.41c.68,0,1,.34,1,.81A2.58,2.58,0,0,1,40.68,34a2.91,2.91,0,0,0-.8,2.1v.36h1.8v-.25a2.32,2.32,0,0,1,.69-1.68,3.39,3.39,0,0,0,1.14-2.27C43.52,31.11,42.71,30.12,40.93,30.12Z"/></g></g></svg>