<svg xmlns="http://www.w3.org/2000/svg" viewBox="0 0 55.94 55.94"><defs><style>.cls-1{fill:#fff;}</style></defs><title>Asset 328</title><g id="Layer_2" data-name="Layer 2"><g id="Layer_1-2" data-name="Layer 1"><path class="cls-1" d="M28,0a28,28,0,1,0,28,28A28,28,0,0,0,28,0ZM25,44.55A17.27,17.27,0,1,1,41.64,22.79l-2.54,4.8c0-.1,0-.2,0-.3A14.13,14.13,0,1,0,25,41.41,13.9,13.9,0,0,0,28.24,41l1.6,2.83A17.23,17.23,0,0,1,25,44.55Zm-.87-10.79,2.1,3.7h-3.8v-7.6h-7.6V24.71h7.6V17.12h5.14v7.59h7.6v5.15H31.54l-.13-.23-1-1.82-1.82,1L24.91,30.9l-1.82,1Zm12.69,11.6A2.09,2.09,0,0,1,35,46.47h0a2.07,2.07,0,0,1-1.82-1.06l-1.3-2.28-.49-.87-5.41-9.53,1.62-.92,2-1.15,4.31,7.59,1,1.78,3.22-6.09L47.5,16.2l3.7,1.95Z"/></g></g></svg>