<svg xmlns="http://www.w3.org/2000/svg" viewBox="0 0 55.94 55.94"><title>Asset 247</title><g id="Layer_2" data-name="Layer 2"><g id="Layer_1-2" data-name="Layer 1"><circle cx="30.71" cy="35.08" r="5.33"/><circle cx="39.02" cy="18.25" r="3.09"/><path d="M14.52,24.66a2.58,2.58,0,1,0,2.58,2.58A2.59,2.59,0,0,0,14.52,24.66Z"/><path d="M28,0a28,28,0,1,0,28,28A28,28,0,0,0,28,0ZM18.14,32.66l.55,1.4-2.57,1-.56-1.41a6.4,6.4,0,0,1-2.31,0L12.65,35l-2.54-1.1.6-1.38a6.53,6.53,0,0,1-1.6-1.67l-1.4.56-1-2.58,1.4-.55a6.69,6.69,0,0,1,0-2.32l-1.38-.6,1.11-2.54,1.38.6a6.33,6.33,0,0,1,1.66-1.6l-.55-1.4,2.58-1,.55,1.4a6.63,6.63,0,0,1,2.31,0l.6-1.38,2.54,1.11L18.33,22a6.52,6.52,0,0,1,1.61,1.66l1.4-.55,1,2.58L21,26.2a6.4,6.4,0,0,1,0,2.31l1.38.6-1.1,2.55-1.38-.6A6.7,6.7,0,0,1,18.14,32.66ZM41.2,37.6l-2-.14a8.6,8.6,0,0,1-1.35,2.73l1.3,1.49-2.75,2.4-1.3-1.5a8.32,8.32,0,0,1-2.88,1l-.14,2-3.63-.25.13-2A8.37,8.37,0,0,1,25.88,42l-1.49,1.31L22,40.51l1.49-1.3a8.68,8.68,0,0,1-1-2.88l-2-.14.25-3.64,2,.14A8.6,8.6,0,0,1,24.11,30l-1.3-1.49,2.75-2.4,1.3,1.5a8.32,8.32,0,0,1,2.88-1l.13-2,3.64.25-.13,2A8.47,8.47,0,0,1,36.1,28.2l1.49-1.31L40,29.64l-1.49,1.3a8.66,8.66,0,0,1,1,2.89l2,.13Zm4.21-18.08,1.38.6-1.11,2.54-1.38-.6a6.49,6.49,0,0,1-1.66,1.6l.55,1.4-2.58,1-.55-1.4a6.63,6.63,0,0,1-2.31-.05L37.15,26l-2.54-1.1.6-1.38a6.57,6.57,0,0,1-1.61-1.67l-1.4.56-1-2.58,1.4-.55a6.4,6.4,0,0,1,0-2.31l-1.38-.61,1.11-2.54,1.38.6a6.49,6.49,0,0,1,1.66-1.6l-.55-1.4,2.58-1,.55,1.4a6.63,6.63,0,0,1,2.31,0l.6-1.38,2.54,1.1L42.83,13a6.57,6.57,0,0,1,1.61,1.67l1.4-.56,1,2.58-1.4.55A6.45,6.45,0,0,1,45.41,19.52Z"/></g></g></svg>