<svg xmlns="http://www.w3.org/2000/svg" viewBox="0 0 55.94 55.94"><defs><style>.cls-1{fill:#fff;}</style></defs><title>Asset 338</title><g id="Layer_2" data-name="Layer 2"><g id="Layer_1-2" data-name="Layer 1"><path class="cls-1" d="M28,0a28,28,0,1,0,28,28A28,28,0,0,0,28,0Zm-.33,4.71a5.08,5.08,0,1,1-5.08,5.08A5.07,5.07,0,0,1,27.64,4.71Zm-17.58,21a2.36,2.36,0,0,1,2.29-1.55,2.26,2.26,0,0,1,2.38,2.11v2.5a2.26,2.26,0,0,1-2.38,2.11,2.35,2.35,0,0,1-2.29-1.56ZM27,43.9a14.08,14.08,0,0,0-16.37-3.54V31.78a3.63,3.63,0,0,0,5.66-3v-2.5a3.63,3.63,0,0,0-5.66-3V16.4S21.73,11.67,27,19.94Zm.85-24.52a11.69,11.69,0,0,0-2.76-3,10.56,10.56,0,0,1,2.59-.33,10.7,10.7,0,0,1,2.84.4A11.38,11.38,0,0,0,27.81,19.38ZM45,40.36A14.09,14.09,0,0,0,28.65,43.9v-24C33.88,11.67,45,16.4,45,16.4v6.86a3.62,3.62,0,0,0-5.65,3v2.5a3.62,3.62,0,0,0,5.65,3Zm.86-11a2.3,2.3,0,0,1-2.25,1.56,2.24,2.24,0,0,1-2.34-2.11v-2.5a2.24,2.24,0,0,1,2.34-2.11,2.31,2.31,0,0,1,2.25,1.55Z"/></g></g></svg>