<svg xmlns="http://www.w3.org/2000/svg" viewBox="0 0 55.94 55.94"><defs><style>.cls-1{fill:#fff;}</style></defs><title>Asset 313</title><g id="Layer_2" data-name="Layer 2"><g id="Layer_1-2" data-name="Layer 1"><path class="cls-1" d="M28,0a28,28,0,1,0,28,28A28,28,0,0,0,28,0ZM41.86,17.12a3.09,3.09,0,1,1-2.41,5V22l-.19-1.7-.43.32a3,3,0,0,1,0-.43A3.08,3.08,0,0,1,41.86,17.12Zm-20.48,7.2a9.38,9.38,0,0,1,2.91-3.56,9.5,9.5,0,0,1,13.28,2l.89-.65.23,2.05.23,2-.78-.34L37,25.39l-.26-.11-1.63-.71.88-.65a7.58,7.58,0,0,0-10.59-1.6A7.45,7.45,0,0,0,23,25.43l-2-.3h0A8.41,8.41,0,0,1,21.38,24.32Zm-4.75-10.7a4.17,4.17,0,1,1-4.17,4.17A4.17,4.17,0,0,1,16.63,13.62ZM6.87,33.91c0-6.07,4.37-11,9.76-11a8.8,8.8,0,0,1,3.84.89,9.18,9.18,0,0,0-.44,1L19.59,26l1.27.2,2,.29.8.12.09-.21a11.73,11.73,0,0,1,2.67,7.54H20.65c-.15-.16-.31-.3-.45-.47l.78-.58,1.46-1.07-1.66-.72L17.19,29.5l-3.58-1.57L12,27.21l.2,1.8.44,3.89.11,1Zm40.3-3c-.18.49-.39,1-.61,1.45l-.07.15a18,18,0,0,1-30.76,2.88l-1.67,1.24-.31-2.76-.13-1.13-.21-2-.22-1.94,1.79.78,1.79.79,1.8.78,1.79.78-1.67,1.24a14.25,14.25,0,0,0,22.58.65c.19-.23.37-.47.55-.71s.47-.65.67-1l.25-.44c.11-.19.21-.39.32-.59a.41.41,0,0,1,0-.09c.12-.24.23-.47.33-.71l3.73.57Zm.15-1-3.73-.56-.76-.12-.3.71c-.2.46-.44.91-.65,1.29l-.09.15a2,2,0,0,1-.14.25l-.28.44H34.64a8.62,8.62,0,0,1,2.14-5.77l1,.42.77.34,1.57.69-.19-1.7-.2-1.74A6.49,6.49,0,0,1,41.86,24c4,0,7.21,3.64,7.21,8.13H47.76c.12-.27.23-.54.32-.79v0l0-.09.33-1.09Z"/></g></g></svg>