<svg xmlns="http://www.w3.org/2000/svg" viewBox="0 0 55.94 55.94"><defs><style>.cls-1{fill:#fff;}</style></defs><title>Asset 343</title><g id="Layer_2" data-name="Layer 2"><g id="Layer_1-2" data-name="Layer 1"><path class="cls-1" d="M28,0a28,28,0,1,0,28,28A28,28,0,0,0,28,0ZM40.66,13.87a4.58,4.58,0,1,1-4.57,4.58A4.58,4.58,0,0,1,40.66,13.87ZM27.59,16.39a4.91,4.91,0,1,1-4.9,4.9A4.9,4.9,0,0,1,27.59,16.39ZM15.28,13.87a4.58,4.58,0,1,1-4.58,4.58A4.58,4.58,0,0,1,15.28,13.87ZM4.57,36.15c0-6.66,4.79-12.06,10.71-12.06a10,10,0,0,1,6.82,2.75,14.45,14.45,0,0,0-7.27,9.31Zm11.55,4.1a13.89,13.89,0,0,1,2.34-7.8l0,0a12.3,12.3,0,0,1,2.67-2.85h0a10.73,10.73,0,0,1,4.1-2,6.67,6.67,0,0,0,2.32.42,6.59,6.59,0,0,0,2.32-.42,11.26,11.26,0,0,1,6.2,4h0a13.81,13.81,0,0,1,3,8.63Zm24.24-4.1a14.53,14.53,0,0,0-6.78-9,10,10,0,0,1,7.08-3c5.92,0,10.72,5.4,10.72,12.06Z"/></g></g></svg>