<svg xmlns="http://www.w3.org/2000/svg" viewBox="0 0 55.94 55.94"><defs><style>.cls-1{fill:#fff;}</style></defs><title>Asset 317</title><g id="Layer_2" data-name="Layer 2"><g id="Layer_1-2" data-name="Layer 1"><path class="cls-1" d="M28,0a28,28,0,1,0,28,28A28,28,0,0,0,28,0Zm17,24.12C46,23.57,47,23,48,22.51c-1.16.79-2.34,1.55-3.52,2.29A5.11,5.11,0,0,0,44.92,24.12ZM50.3,28l-3,.89-.16-.14ZM44.42,17.81l-.06.06h0Zm-4.7-3.61c-.23.46-.46.92-.7,1.38l-.22,0C39.1,15.14,39.4,14.67,39.72,14.2Zm-2,3.06h0a4.47,4.47,0,0,1,1.93-.43,4.6,4.6,0,0,1,3.72,1.9.76.76,0,0,1,.08.11,4.55,4.55,0,0,1,.8,2.6,4.61,4.61,0,1,1-6.53-4.18ZM35.89,26c.17.13.33.26.51.38a10.74,10.74,0,0,0-1.45.59ZM31,22.88c1-3.67,2-7.34,3.26-10.95-.72,3.75-1.68,7.43-2.63,11.12-.17.63-.35,1.26-.52,1.89a3.77,3.77,0,0,0-.54-.34C30.69,24,30.84,23.45,31,22.88Zm3.44,1.2-.1.18c-.56.95-1.11,1.9-1.68,2.84a3.85,3.85,0,0,0-.28-.66c.46-.84.93-1.67,1.4-2.5.11-.2.23-.4.35-.6A6.81,6.81,0,0,0,34.42,24.08ZM28.36,11.16c.27,3.81.29,7.61.33,11.42,0,.49,0,1,0,1.46h-.62c0-.49,0-1,0-1.46C28.07,18.77,28.09,15,28.36,11.16ZM26.5,25.9a3.25,3.25,0,0,1,1.56-.55c.1,0,.2,0,.3,0s.2,0,.3,0a3.25,3.25,0,0,1,1.56.55h0a3.72,3.72,0,0,1,.48.41h0a3.2,3.2,0,0,1,.9,2.2v0h0c0,.12,0,.23,0,.34h0a3.21,3.21,0,0,1-2.4,2.79h0a1.55,1.55,0,0,1-.31.06,2.52,2.52,0,0,1-1,0,1.55,1.55,0,0,1-.31-.06h0a3.23,3.23,0,0,1-2.43-3.13h0a3.39,3.39,0,0,1,.06-.64h0a3.22,3.22,0,0,1,.84-1.6h0a3.72,3.72,0,0,1,.48-.41Zm-.76-3c.14.57.29,1.14.43,1.71a5.07,5.07,0,0,0-.54.36c-.17-.64-.35-1.27-.52-1.9-.95-3.69-1.91-7.37-2.63-11.12C23.72,15.54,24.72,19.21,25.74,22.88Zm-1.38,3.56a4.88,4.88,0,0,0-.29.66l-1.39-2.36c.14-.21.26-.42.38-.64Zm-6.48-10.9h-.2c-.23-.45-.46-.9-.68-1.35ZM13.8,19.16h0a4.61,4.61,0,1,1-.6,2.28A4.61,4.61,0,0,1,13.8,19.16Zm7.46,7.24-.18-.06.07-.06Zm-8.43-8.11,0,.07c-.16-.18-.33-.36-.49-.55Zm.1,6.44a6.17,6.17,0,0,0,1,1.15c-1.77-1.08-3.53-2.19-5.25-3.37C10.13,23.22,11.53,24,12.93,24.73Zm-2.77,4.16-.17.16L6.42,28C7.67,28.28,8.92,28.59,10.16,28.89Zm-3.42,5-1.09,0,1.11,0S6.75,33.88,6.74,33.9ZM7,39.25a13.4,13.4,0,0,1,1.1-5.31h0l.06-.14h0a10.74,10.74,0,0,1,9.63-6.69,9.59,9.59,0,0,1,4.34,1.05h0l0,0c.28.13.55.29.82.45l.09.06c.3.19.61.4.89.62a4.49,4.49,0,0,0,.87,1.95,9.74,9.74,0,0,0-5.22,8Zm13.75.94a9.65,9.65,0,0,1,.25-2.1V38a10.52,10.52,0,0,1,.31-1,1.21,1.21,0,0,0,.05-.14,9.1,9.1,0,0,1,.4-.9l.12-.22q.21-.39.45-.75l.22-.29c.15-.2.3-.4.47-.59s.23-.23.35-.34a4.68,4.68,0,0,1,.46-.43c.16-.14.34-.26.52-.39s.25-.19.38-.27a7.35,7.35,0,0,1,1-.49l0,0a3.77,3.77,0,0,0,.54.34,4.35,4.35,0,0,0,.59.25,4.19,4.19,0,0,0,1.46.26A4.39,4.39,0,0,0,31,32.16l0,0a7.35,7.35,0,0,1,1,.49c.13.08.25.18.38.27s.36.25.52.39a4.68,4.68,0,0,1,.46.43c.12.11.24.22.35.34s.32.39.47.59l.22.29q.24.36.45.75l.12.22a9.1,9.1,0,0,1,.4.9,1.21,1.21,0,0,0,.05.14,10.52,10.52,0,0,1,.31,1v.06a9.65,9.65,0,0,1,.25,2.1Zm16.33-.94a9.74,9.74,0,0,0-5.22-8,4.52,4.52,0,0,0,.56-1,10.14,10.14,0,0,1,7.24-3.16,10.73,10.73,0,0,1,9.63,6.71h0a.42.42,0,0,1,0,.1h0a13.2,13.2,0,0,1,1.11,5.33Zm13.63-5.39h0Z"/></g></g></svg>