<svg xmlns="http://www.w3.org/2000/svg" viewBox="0 0 55.94 55.94"><defs><style>.cls-1{fill:#fff;}</style></defs><title>Asset 311</title><g id="Layer_2" data-name="Layer 2"><g id="Layer_1-2" data-name="Layer 1"><path class="cls-1" d="M25.46,17.81a6.06,6.06,0,0,1,3.3,1.38l.91-1.11a7.41,7.41,0,0,0-4.08-1.7Z"/><path class="cls-1" d="M33.8,25.46a15.19,15.19,0,0,0-1.44-4l-1.26.67a14,14,0,0,1,1.29,3.63Z"/><path class="cls-1" d="M24.42,35.92l.21,1.42a17.84,17.84,0,0,0,4.08-1.1l-.54-1.33A16,16,0,0,1,24.42,35.92Z"/><path class="cls-1" d="M16.34,37.25a37,37,0,0,0,4.12.34l0-1.43a36.82,36.82,0,0,1-4-.33Z"/><path class="cls-1" d="M18.61,18.66a2.75,2.75,0,0,0-.94,1.17l1.31.59a1.38,1.38,0,0,1,.45-.59,13.56,13.56,0,0,1,2.42-1.36l-.56-1.32A14.91,14.91,0,0,0,18.61,18.66Z"/><path class="cls-1" d="M19,23.91l-1.38.4A7.94,7.94,0,0,0,19.81,28l.12.1L20.82,27l-.07-.07A6.45,6.45,0,0,1,19,23.91Z"/><path class="cls-1" d="M28.29,29.39,28.11,28a24.17,24.17,0,0,1-3,.23,8.45,8.45,0,0,1-.89,0l-.11,1.43c.32,0,.64,0,1,0A22.29,22.29,0,0,0,28.29,29.39Z"/><path class="cls-1" d="M28,0a28,28,0,1,0,28,28A28,28,0,0,0,28,0ZM41,40.6H8.57L9.06,36c1,.15,2.11.33,3.25.56l.21-1.42c-1.12-.23-2.23-.41-3.31-.57l2.23-21H45.37l.4,3.75c-.47,0-.93-.06-1.36-.06h-.27l0,1.43h.24c.47,0,1,0,1.51.07l1.67,15.73-.25,0-1.41-2.7-1.08-2.06-1,2.11-1.28,2.76-3,.51-2.3.39L39,37.1l2.23,2.07Zm4.16,0h0l-.07,0,0,0h0l-3.13,1.74.32-2.2.21-1.4-2.67-2.48,3.59-.61,1.53-3.31,1.7,3.23,1.11.13,2.51.31L48,38.29h0l-.31.32.39,2h0l.31,1.59Z"/><path class="cls-1" d="M32.5,30.42a5.23,5.23,0,0,1-1.27,2.41l1.07,1a6.6,6.6,0,0,0,1.6-3.07,7.86,7.86,0,0,0,.15-1l-1.42-.15C32.6,29.86,32.55,30.15,32.5,30.42Z"/><path class="cls-1" d="M40.59,19.53l-.69-1.26a8.32,8.32,0,0,0-3.06,3.11l1.21.76A7,7,0,0,1,40.59,19.53Z"/><path class="cls-1" d="M31.81,27l.6,1.3a9.15,9.15,0,0,0,3.41-2.69l-1.12-.9A7.78,7.78,0,0,1,31.81,27Z"/></g></g></svg>