<svg xmlns="http://www.w3.org/2000/svg" viewBox="0 0 55.94 55.94"><defs><style>.cls-1{fill:#fff;}</style></defs><title>CurrentOpenings</title><g id="Layer_2" data-name="Layer 2"><g id="Layer_4" data-name="Layer 4"><path class="cls-1" d="M37.8,41.39a17.71,17.71,0,1,1,3.54-3.54l8.07,8.08a28,28,0,1,0-3.54,3.53Z"/><path class="cls-1" d="M27.19,14.55a12.69,12.69,0,0,0-9,21.67l.17.15a9.87,9.87,0,0,1,8.82-6,9.87,9.87,0,0,1,8.81,6l.17-.15a12.69,12.69,0,0,0-9-21.67Zm0,14.82a4.25,4.25,0,1,1,4.25-4.25A4.25,4.25,0,0,1,27.19,29.37Z"/></g></g></svg>