<svg xmlns="http://www.w3.org/2000/svg" viewBox="0 0 55.94 55.94"><defs><style>.cls-1{fill:#fff;}</style></defs><title>ThinkingAboutASummerJob</title><g id="Layer_2" data-name="Layer 2"><g id="Layer_4" data-name="Layer 4"><path class="cls-1" d="M18.07,16a.82.82,0,0,0,0,1.64h0a.82.82,0,0,0,0-1.64Z"/><path class="cls-1" d="M18.2,11.35a3.12,3.12,0,0,0-1.51.37l.31,1a1.69,1.69,0,0,1,.89-.27c.45,0,.66.22.66.54a1.68,1.68,0,0,1-.52.95,2,2,0,0,0-.54,1.41v.23h1.21v-.16a1.52,1.52,0,0,1,.46-1.13,2.25,2.25,0,0,0,.76-1.52C19.93,12,19.39,11.35,18.2,11.35Z"/><path class="cls-1" d="M28,0a28,28,0,1,0,28,28A28,28,0,0,0,28,0Zm3.46,17a5.29,5.29,0,0,1,5.25,4.77,4.21,4.21,0,0,0-2,.61h-.05a4.77,4.77,0,0,0-.63.48l-.14.13a4.54,4.54,0,0,0-.6.76L31,27.37c-.28,0-.56,0-.85.07A5.29,5.29,0,0,1,31.43,17ZM14.18,19.22a3.64,3.64,0,0,1-1.53-6.94,3.08,3.08,0,0,1,5.12-2.08,3.23,3.23,0,0,1,2.12-.78,3.27,3.27,0,0,1,3,2,3.65,3.65,0,0,1-.47,7.26,4.62,4.62,0,0,1-.66-.06,3.64,3.64,0,0,1-5.2-.35A3.6,3.6,0,0,1,14.18,19.22Zm11.08,5.2h-.09a.52.52,0,0,1-.72.12.49.49,0,0,1-.3.2.51.51,0,0,1-.43-.9.43.43,0,0,1,.33-.48.39.39,0,0,1,.3,0,.44.44,0,0,1,.26-.18.47.47,0,0,1,.48.18.51.51,0,0,1,.17,1Zm-6.92-1.91a1.17,1.17,0,0,1,.41-1.17,1,1,0,0,1,.74-1.1,1,1,0,0,1,.69.09,1,1,0,0,1,.59-.39,1,1,0,0,1,1.08.41,1.15,1.15,0,0,1,.38,2.26l-.2,0a1.21,1.21,0,0,1-.68.46,1.17,1.17,0,0,1-1-.19,1.1,1.1,0,0,1-.67.45A1.15,1.15,0,0,1,18.34,22.51Zm8.38,20.14-.06.12H19v0c0-.44,0-.89.06-1.32s.08-.65.13-1c0-.1,0-.21,0-.31.07-.4.15-.8.25-1.19v0a13.22,13.22,0,0,1,8.65-9.61l.11,0c.3-.09.6-.17.9-.23l.39-.07.69-.11a11.12,11.12,0,0,1,1.16-.06h.39l2.71-4.29a3.11,3.11,0,0,1,.39-.49L35,24a2.6,2.6,0,0,1,.43-.33l0,0a2.76,2.76,0,0,1,2.89,0l.33.19a2.79,2.79,0,0,1,.93,3.82l-6.76,10.7Zm2.35.12,4.62-3.25.24-.17.15-.24,4.75-7.51a14.58,14.58,0,0,1,5,11.17Z"/></g></g></svg>