<svg xmlns="http://www.w3.org/2000/svg" viewBox="0 0 55.94 55.94"><defs><style>.cls-1{fill:#fff;}</style></defs><title>VolunteerOpportunities</title><g id="Layer_2" data-name="Layer 2"><g id="Layer_4" data-name="Layer 4"><path class="cls-1" d="M28,0a28,28,0,1,0,28,28A28,28,0,0,0,28,0Zm-.11,11.59a7,7,0,1,1-7,7A7,7,0,0,1,27.86,11.59Zm14,27.05a3.13,3.13,0,0,1-2.16,1.79s-23.78,0-23.78,0A3.14,3.14,0,0,1,14,38.65L8,24.81a3.15,3.15,0,1,1,5.77-2.52l4.44,10.15a11.13,11.13,0,0,1,9.47-5.55,11.74,11.74,0,0,1,9.94,5.87l4.59-10.49A3.15,3.15,0,0,1,48,24.79Z"/></g></g></svg>